<?xml version="1.0" encoding="UTF-8"?><svg id="Layer_1" xmlns="http://www.w3.org/2000/svg" viewBox="0 0 94.28 124.99"><defs><style>.cls-1{fill:#f6df32;}.cls-2{fill:#041e2d;}.cls-3{fill:#fff;}.cls-4{fill:#78b7d7;}</style></defs><g><path class="cls-2" d="M2.58,115.98c0-2.54,1.48-3.67,3.4-3.67,1.15,0,2.06,.45,2.63,1.31,.57-.86,1.48-1.31,2.63-1.31,1.92,0,3.4,1.13,3.4,3.67v6.01h-2.35v-6.01c0-1.1-.54-1.49-1.25-1.49s-1.25,.39-1.25,1.49v6.01h-2.35v-6.01c0-1.1-.55-1.49-1.25-1.49s-1.25,.39-1.25,1.49v6.01H2.58v-6.01Z"/><path class="cls-2" d="M16.13,116.47c0-2.58,1.47-4.17,4.17-4.17s4.19,1.58,4.19,4.17v5.52h-2.35v-2.7h-3.72v2.7h-2.29v-5.52Zm6.01,.78v-.78c0-1.31-.57-1.99-1.86-1.99s-1.86,.68-1.86,1.99v.78h3.72Z"/><path class="cls-2" d="M25.74,117.24c0-2.84,2.09-4.94,5.05-4.94,2.37,0,4.19,1.34,4.82,3.34h-2.58c-.45-.73-1.23-1.16-2.24-1.16-1.61,0-2.67,1.16-2.67,2.76s1.06,2.76,2.67,2.76c1.19,0,2.03-.48,2.47-1.41h-3.05v-1.89h5.62v1.03c-.23,2.58-2.25,4.44-5.04,4.44-2.96,0-5.05-2.09-5.05-4.93Z"/><path class="cls-2" d="M37.21,112.5h2.35v9.49h-2.35v-9.49Z"/><path class="cls-2" d="M41.51,112.5h2.35v3.88l2.76-3.88h2.9l-3.58,4.64,3.73,4.85h-2.98l-2.83-3.99v3.99h-2.35v-9.49Z"/><path class="cls-2" d="M54.15,119.19h2.29c0,.59,.36,.97,1.28,.97s1.28-.38,1.28-.97-.73-.77-1.6-.93c-1.35-.25-3.08-.57-3.08-2.87,0-1.8,1.36-3.08,3.41-3.08s3.34,1.21,3.41,3.01h-2.21c-.01-.55-.36-.99-1.18-.99s-1.18,.48-1.18,.97c0,.62,.73,.77,1.61,.93,1.36,.25,3.09,.57,3.09,2.87,0,1.89-1.42,3.08-3.57,3.08s-3.53-1.15-3.57-2.99Z"/><path class="cls-2" d="M62.51,116.3c0-2.45,1.45-3.99,4.06-3.99s4.06,1.54,4.06,3.99v5.69h-2.35v-5.69c0-1.16-.55-1.81-1.71-1.81s-1.71,.65-1.71,1.81v5.69h-2.35v-5.69Z"/><path class="cls-2" d="M72.14,116.47c0-2.58,1.47-4.17,4.17-4.17s4.19,1.58,4.19,4.17v5.52h-2.35v-2.7h-3.72v2.7h-2.29v-5.52Zm6.01,.78v-.78c0-1.31-.57-1.99-1.86-1.99s-1.86,.68-1.86,1.99v.78h3.72Z"/><path class="cls-2" d="M82.23,112.5h3.73c2.58,0,3.73,1.41,3.73,3.34s-1.15,3.35-3.73,3.35h-1.38v2.8h-2.35v-9.49Zm3.77,4.51c1,0,1.31-.49,1.31-1.18s-.31-1.16-1.31-1.16h-1.42v2.34h1.42Z"/></g><g><g><path class="cls-2" d="M22.86,102.14H10.56c-4.4,0-7.98-4.1-7.98-9.15V56.74c0-5,3.51-9.08,7.85-9.15,.67,.28,3.88,1.65,9.35,3-5.83,6.42-9.4,14.94-9.4,24.28,0,10.88,4.84,20.65,12.47,27.28Z"/><path class="cls-2" d="M79.54,74.87c0,11.32-5.72,21.32-14.42,27.28H27.89c-8.7-5.95-14.42-15.96-14.42-27.28,0-9.19,3.77-17.51,9.84-23.5,3.74,.77,8.26,1.45,13.48,1.83,.06,.01,.12,.01,.17,.02,3.65,.4,7.18,.61,10.65,.61,5.06,0,9.97-.43,14.83-1.31,.05,0,.09-.01,.15-.02,2.6-.36,4.95-.77,7.03-1.21,6.11,6,9.92,14.35,9.92,23.58Z"/><path class="cls-2" d="M89.69,56.74v36.25c0,5.05-3.59,9.15-7.99,9.15h-11.56c7.64-6.63,12.47-16.4,12.47-27.28,0-9.39-3.6-17.96-9.5-24.38,5.14-1.3,8.07-2.59,8.72-2.89,4.34,.08,7.85,4.15,7.85,9.15Z"/></g><g><g><path class="cls-2" d="M68.95,49.84c-.24,.06-.46,.13-.69,.18-13.65,3.48-27.29,3.46-43.44-.05-.24-.05-.48-.1-.73-.16,5.95-5.34,13.82-8.59,22.41-8.59s16.49,3.26,22.46,8.62Z"/><path class="cls-2" d="M79.54,74.87c0,11.32-5.72,21.32-14.42,27.28-5.3,3.63-11.72,5.76-18.62,5.76s-13.3-2.13-18.61-5.76c-8.7-5.95-14.42-15.96-14.42-27.28,0-9.19,3.77-17.51,9.84-23.5,.14-.14,.27-.26,.41-.4,4.54,1.02,8.88,1.76,13.07,2.23,.06,.01,.12,.01,.17,.02,3.65,.4,7.18,.61,10.65,.61,5.06,0,9.97-.43,14.83-1.31,.05,0,.09-.01,.15-.02,2.25-.4,4.49-.9,6.73-1.5,.1,.09,.2,.2,.3,.29,6.11,6,9.92,14.35,9.92,23.58Z"/></g><path class="cls-4" d="M46.5,40.62c-8.92,0-17.05,3.42-23.15,9.02,.25,.06,.49,.12,.73,.18,.25,.05,.49,.1,.73,.16,5.81-5.07,13.4-8.14,21.68-8.14s15.94,3.09,21.76,8.19c.23-.05,.45-.12,.69-.18h.01c.23-.06,.47-.13,.71-.19-6.1-5.61-14.24-9.04-23.18-9.04Z"/></g><g><path class="cls-3" d="M26.53,54.06c-.24-.23-.49-.4-.75-.51-.25-.12-.52-.17-.81-.16-.57,.01-1.07,.26-1.53,.74-.14,.15-.24,.28-.33,.39-.07,.12-.15,.23-.2,.36-.02,.05-.02,.09,.02,.13l.17,.15s.04,.02,.05,.01c.02-.01,.03-.03,.04-.05,.04-.1,.1-.22,.2-.35,.1-.14,.2-.26,.3-.38,.38-.41,.81-.61,1.27-.6,.22,0,.44,.05,.65,.15,.21,.1,.42,.25,.62,.43,.4,.38,.62,.79,.66,1.24,.03,.47-.14,.9-.5,1.3-.12,.13-.23,.23-.33,.31-.1,.08-.23,.17-.37,.24-.05,.02-.05,.05-.02,.09l.16,.17s.08,.05,.14,.02c.06-.04,.13-.08,.18-.14,.06-.04,.12-.08,.17-.13l.16-.16c.06-.04,.12-.1,.18-.18,.44-.47,.65-1,.63-1.56-.02-.57-.27-1.07-.75-1.52Z"/><path class="cls-3" d="M24.4,57.56l-.18-.13s-.02-.01-.04,0c-.01,.01-.02,.02-.02,.04-.02,.17-.05,.31-.12,.46-.06,.15-.15,.29-.24,.43-.16,.21-.31,.31-.48,.32-.17,.02-.35-.04-.53-.19l-.15-.1,.04-.05c.35-.46,.55-.84,.63-1.12,.07-.23,.06-.44-.01-.63-.07-.19-.2-.35-.39-.48-.08-.06-.17-.12-.27-.15-.09-.03-.2-.05-.29-.04-.29,.01-.55,.17-.78,.48-.14,.18-.21,.38-.24,.6-.02,.22,.02,.42,.14,.6l-.37-.26s-.07-.03-.1,.01l-.13,.17c-.03,.05-.02,.08,.02,.12,.07,.04,.15,.09,.22,.15,.07,.04,.16,.1,.25,.18l1.16,.85c.3,.21,.58,.3,.83,.27,.25-.04,.49-.21,.71-.52,.1-.15,.19-.28,.26-.43,.06-.14,.1-.28,.13-.43,.01-.06-.01-.1-.05-.14Zm-1.96,.56l-.06,.09-.16-.12c-.16-.12-.28-.23-.38-.36-.08-.13-.15-.25-.18-.38-.03-.13-.03-.25-.01-.38,.02-.12,.07-.24,.15-.35,.12-.16,.24-.25,.39-.29,.07-.02,.16-.02,.24,0,.08,.03,.17,.06,.24,.13,.13,.09,.21,.2,.26,.34,.04,.13,.04,.28-.01,.44-.03,.12-.08,.25-.17,.4-.07,.15-.18,.31-.31,.47Z"/><path class="cls-3" d="M22.78,60.12l-3.34-1.87s-.04-.02-.06-.01-.04,.02-.05,.04l-.1,.19c-.03,.05-.02,.08,.03,.12l1.08,.6c-.19,0-.36,.05-.52,.16-.16,.1-.29,.25-.41,.46-.1,.18-.16,.36-.16,.53s.04,.36,.12,.52c.08,.16,.2,.32,.35,.46,.16,.16,.34,.28,.53,.4s.39,.19,.58,.24,.38,.07,.55,.05c.17-.02,.32-.08,.48-.19,.15-.09,.27-.24,.39-.44,.12-.21,.17-.42,.17-.63s-.05-.39-.17-.55l.37,.24c.05,.02,.08,.01,.12-.03l.1-.19c.02-.05,.01-.08-.03-.12Zm-.81,1.05c-.08,.15-.19,.26-.3,.32-.13,.06-.25,.1-.39,.1-.14,.01-.27-.01-.42-.05-.15-.05-.28-.1-.42-.19-.18-.09-.34-.21-.46-.32-.12-.12-.21-.23-.28-.36-.06-.13-.09-.26-.09-.39s.03-.26,.1-.39c.14-.24,.35-.38,.63-.42,.28-.03,.61,.06,1.01,.28,.15,.07,.27,.18,.39,.28,.1,.1,.2,.22,.26,.34,.05,.13,.08,.25,.08,.38,0,.14-.03,.27-.1,.41Z"/><path class="cls-3" d="M21.82,63.81l-.71-.3,.22-.5c.02-.05,0-.08-.04-.1l-.16-.07c-.05-.01-.08,0-.1,.05l-.22,.49-1.69-.73c-.31-.14-.56-.21-.7-.2-.23,.01-.4,.16-.52,.44-.06,.15-.1,.3-.12,.47,0,.05,.02,.09,.07,.1l.15,.05s.04,.01,.05-.01c.01-.01,.02-.02,.02-.04,.01-.15,.04-.26,.08-.37,.1-.25,.33-.3,.63-.17l1.87,.81-.25,.59c-.02,.05-.01,.08,.04,.1l.16,.07s.08,0,.1-.04l.25-.59,.71,.3c.05,.03,.09,.01,.12-.03l.09-.22s0-.08-.05-.1Z"/><path class="cls-3" d="M20.33,65.13l-1.83-.59c-.75-.24-1.25-.03-1.47,.66-.08,.24-.09,.45-.05,.64,.05,.19,.17,.37,.36,.53l-.46-.15s-.08,0-.09,.05l-.06,.2c-.02,.05,0,.08,.05,.1,.09,.02,.19,.05,.28,.07,.09,.03,.21,.06,.33,.1l2.2,.71c.05,.01,.08,0,.1-.05l.06-.22c.02-.05,0-.08-.05-.1l-1.52-.49c-.16-.04-.29-.1-.42-.19-.13-.08-.23-.19-.3-.29-.08-.12-.14-.23-.16-.37-.02-.13-.02-.26,.03-.4,.15-.47,.53-.62,1.15-.41l1.74,.55s.08,0,.09-.04l.07-.22c.01-.05,0-.08-.05-.1Z"/><path class="cls-3" d="M19.36,68.46c-.1-.02-.2-.03-.28-.05-.08-.01-.19-.03-.32-.06l-2.29-.49c-.05-.01-.08,.01-.09,.06l-.04,.22c-.02,.05,0,.08,.05,.09l1.43,.3c.34,.07,.6,.19,.79,.34,.25,.19,.35,.43,.28,.7-.02,.12-.05,.21-.09,.26-.01,.02-.01,.04-.01,.06s.02,.03,.04,.03l.23,.05s.05,0,.08-.01c.02-.01,.03-.03,.04-.05,.04-.07,.07-.16,.09-.25,.07-.36-.1-.67-.53-.95l.55,.12c.05,.01,.08-.01,.09-.06l.04-.21c.02-.05,0-.08-.05-.09Z"/><path class="cls-3" d="M18.96,70.49l-2.91-.44c-.05-.01-.08,.01-.09,.06l-.03,.25c-.01,.05,.01,.08,.06,.09l2.91,.44c.06,0,.09-.02,.09-.07l.04-.25c.01-.05-.02-.08-.07-.08Zm1.35,.2c-.04-.05-.1-.09-.18-.1-.08-.01-.15,.01-.21,.05-.06,.04-.09,.1-.1,.18-.01,.07,0,.15,.04,.21,.05,.06,.1,.1,.19,.12,.07,.01,.15-.01,.2-.05,.07-.05,.1-.12,.12-.19,.01-.07,0-.15-.05-.21Z"/><path class="cls-3" d="M18.42,72.19l.31,.02c.05,0,.08-.02,.08-.07v-.21s.01-.04,0-.06c-.02-.02-.03-.02-.06-.02h-.26c-.09-.01-.22-.01-.39-.02l-2.3-.15c-.05,0-.08,.02-.08,.07l-.02,.23c0,.05,.02,.08,.08,.08l1.79,.12c.31,.02,.55,.12,.71,.29,.16,.17,.23,.41,.21,.72-.01,.23-.09,.4-.25,.51-.16,.13-.41,.17-.77,.15l-1.8-.12c-.05,0-.08,.03-.08,.08l-.02,.23c0,.05,.02,.07,.07,.08l1.91,.12c.38,.02,.68-.05,.9-.22,.22-.17,.35-.44,.37-.81,.02-.26-.01-.47-.07-.63-.07-.16-.18-.29-.34-.41Z"/><path class="cls-3" d="M18.82,77.48c0-.05-.03-.08-.08-.07l-.31,.02c.17-.17,.27-.34,.34-.49,.05-.16,.08-.34,.06-.55-.01-.23-.06-.43-.14-.59-.08-.16-.2-.28-.35-.38-.15-.09-.31-.17-.52-.2-.2-.04-.43-.04-.69-.03-.22,.01-.41,.06-.59,.14-.18,.08-.33,.19-.44,.31-.12,.13-.21,.27-.27,.44-.05,.16-.08,.34-.06,.52,.01,.21,.06,.4,.17,.57,.09,.17,.23,.29,.41,.37-.37,0-.66-.08-.89-.24-.22-.17-.35-.42-.37-.77-.01-.16,0-.3,.02-.44s.05-.28,.12-.43c.02-.05,.01-.07-.04-.07h-.25s-.07,.02-.08,.06c-.04,.16-.06,.3-.08,.44-.01,.13-.01,.28,0,.45,.01,.24,.06,.45,.15,.63,.09,.18,.21,.32,.36,.44,.15,.12,.33,.2,.52,.25,.21,.05,.43,.07,.68,.05l2.3-.14c.05,0,.08-.03,.07-.08v-.22Zm-1.55,.01c-.17,.01-.31,0-.46-.04-.14-.04-.26-.1-.37-.19-.1-.07-.2-.18-.26-.29-.05-.12-.09-.24-.1-.37,0-.14,.02-.25,.06-.37,.05-.12,.13-.22,.21-.3,.09-.08,.21-.16,.35-.21,.14-.05,.28-.08,.45-.09,.45-.03,.78,.02,1,.17,.21,.15,.34,.38,.36,.68,.01,.29-.08,.52-.29,.71-.22,.18-.52,.28-.93,.3Z"/><path class="cls-3" d="M21.04,82.76s-.05-.07-.1-.09c-.4-.14-.78-.26-1.14-.38-.37-.12-.74-.24-1.13-.38l1.65-1.72s.05-.08,.04-.13l-.07-.32s-.02-.03-.04-.03-.03,0-.05,.01c-.31,.35-.64,.69-.96,1.04-.31,.35-.64,.69-.96,1.04l-1.68,.43c-.05,.01-.06,.04-.05,.09l.06,.25c.01,.06,.05,.07,.1,.06l1.67-.42,2.68,.89s.04,0,.05-.01c.02-.01,.02-.03,.02-.05l-.07-.28Z"/><path class="cls-3" d="M20.57,84.57c-.18-.45-.46-.74-.87-.88-.36-.12-.75-.09-1.18,.07-.21,.08-.4,.18-.56,.31-.17,.13-.29,.26-.39,.41-.1,.19-.17,.38-.18,.59-.02,.21,.01,.42,.09,.65,.08,.22,.2,.4,.35,.55,.15,.15,.33,.25,.52,.31,.17,.05,.36,.07,.57,.07,.2-.01,.41-.05,.63-.14,.42-.16,.73-.41,.93-.73,.12-.19,.18-.38,.19-.58s-.02-.42-.1-.64Zm-.4,.97c-.08,.13-.2,.23-.33,.34-.13,.09-.28,.18-.45,.24s-.34,.1-.5,.12c-.17,.01-.31,0-.46-.04-.15-.05-.27-.13-.38-.22-.1-.1-.19-.22-.24-.38-.1-.29-.08-.58,.07-.86,.08-.13,.19-.23,.31-.34,.14-.09,.28-.18,.46-.24,.17-.06,.34-.1,.49-.12,.17-.01,.33,0,.47,.04,.15,.05,.27,.13,.38,.23,.1,.09,.18,.22,.24,.37,.1,.3,.08,.59-.07,.86Z"/><path class="cls-3" d="M22.44,88.77l-.1-.21s-.06-.05-.1-.03l-1.42,.74c-.15,.07-.28,.14-.44,.17-.15,.03-.28,.03-.42,.01-.14-.02-.26-.06-.37-.14-.12-.07-.2-.18-.27-.3-.23-.45-.05-.82,.52-1.12l1.6-.85c.05-.02,.06-.06,.03-.1l-.1-.21s-.06-.05-.1-.03l-1.7,.89c-.71,.38-.9,.88-.57,1.52,.12,.22,.26,.39,.43,.48,.17,.1,.38,.15,.62,.13l-.42,.22s-.05,.06-.03,.1l.09,.19s.06,.06,.1,.03c.09-.05,.18-.09,.26-.15,.09-.05,.19-.1,.3-.16l2.04-1.08c.05-.02,.06-.06,.03-.1Z"/><path class="cls-3" d="M23.86,90.87c-.02-.08-.06-.17-.12-.24-.2-.3-.56-.4-1.06-.29l.47-.31s.05-.06,.02-.1l-.12-.18s-.07-.05-.12-.02c-.08,.05-.16,.1-.23,.16-.06,.05-.16,.12-.27,.19l-1.95,1.29s-.05,.06-.02,.12l.12,.19s.07,.05,.12,.02l1.22-.81c.28-.19,.55-.29,.79-.32,.31-.04,.55,.05,.7,.29,.06,.09,.1,.18,.13,.25,0,.02,.01,.03,.03,.04,.01,.01,.03,.01,.05,0l.2-.14s.04-.03,.05-.05c0-.03,0-.05-.01-.07Z"/><path class="cls-3" d="M28.94,94.9l-.31-.31s-.06-.04-.1-.02l-3.7,1.56,1.57-3.7s.02-.05,.02-.07c-.01-.01-.02-.03-.04-.05l-.3-.3c-.05-.05-.09-.08-.12-.08s-.05,.02-.12,.08l-2.86,2.83s-.04,.07,0,.12l.18,.18s.07,.04,.12,0l2.72-2.67-1.59,3.81s-.01,.03-.01,.05c0,.01,.01,.03,.03,.04l.18,.19s.06,.03,.1,.02c0,0,.06-.03,.17-.07,.12-.04,.26-.1,.44-.18,.18-.07,.38-.16,.61-.25,.22-.09,.45-.19,.69-.29,.56-.23,1.18-.49,1.89-.79l-2.72,2.68s-.04,.07,0,.12l.18,.19s.07,.03,.12-.01l2.86-2.83c.06-.05,.09-.08,.09-.1s-.03-.06-.08-.12Z"/><path class="cls-3" d="M29.99,97.03c-.15-.1-.28-.19-.42-.26-.15-.06-.28-.1-.44-.13-.05-.01-.1,0-.14,.04l-.13,.18s-.01,.03,0,.04c0,.02,.02,.02,.04,.03,.17,.01,.31,.05,.46,.12,.15,.06,.28,.15,.42,.24,.21,.16,.33,.31,.34,.48,.01,.17-.05,.35-.2,.55l-.1,.14-.06-.04c-.45-.35-.83-.56-1.11-.64-.23-.07-.44-.07-.63,0-.19,.07-.35,.2-.49,.39-.05,.08-.1,.17-.14,.27-.04,.09-.05,.2-.05,.29,.01,.29,.17,.55,.48,.79,.18,.13,.38,.21,.59,.24,.22,.02,.42-.02,.6-.13l-.26,.36s-.02,.07,.02,.1l.17,.13s.07,.03,.1-.01c.05-.07,.09-.15,.15-.22s.1-.16,.18-.25l.86-1.16c.22-.29,.31-.57,.28-.82s-.2-.49-.51-.72Zm-.48,1.85c-.12,.16-.23,.27-.36,.37-.13,.09-.25,.16-.38,.18-.13,.03-.25,.04-.38,.01-.13-.02-.24-.07-.35-.16-.16-.12-.25-.24-.28-.39-.03-.07-.03-.16,0-.24,.02-.08,.06-.16,.13-.24,.08-.13,.2-.21,.34-.25,.13-.04,.27-.04,.44,.01,.12,.03,.25,.09,.4,.17,.15,.08,.3,.19,.47,.32l.08,.06-.12,.16Z"/><path class="cls-3" d="M33.7,99.48l-.19-.12s-.08-.01-.1,.03l-.15,.27c-.05-.23-.13-.41-.23-.55-.1-.14-.24-.25-.42-.36-.2-.12-.39-.18-.57-.2-.19-.02-.36,0-.51,.07-.16,.06-.3,.18-.45,.32-.14,.15-.27,.34-.4,.57-.12,.19-.18,.38-.21,.57s-.03,.37,.01,.53c.04,.17,.12,.32,.22,.47,.1,.14,.24,.25,.4,.35,.19,.1,.38,.17,.57,.17,.2,.01,.38-.03,.53-.14-.2,.3-.43,.5-.69,.61-.08,.03-.18,.05-.27,.05-.18,0-.37-.06-.57-.17-.14-.08-.25-.17-.36-.26-.1-.08-.2-.2-.29-.32-.03-.05-.06-.05-.08-.01l-.14,.21s-.03,.07,0,.1c.12,.13,.22,.22,.32,.3,.06,.05,.13,.09,.2,.15,.05,.03,.12,.07,.18,.1,.21,.13,.41,.2,.61,.22,.2,.03,.38,.01,.56-.04,.17-.06,.33-.16,.47-.28,.01,0,.02-.01,.03-.02,.16-.15,.29-.32,.42-.55l1.14-1.99s.02-.08-.03-.1Zm-1.03,1.18c-.07,.15-.18,.26-.28,.36-.12,.09-.23,.17-.36,.21-.13,.04-.26,.06-.39,.05-.13-.01-.25-.05-.37-.12-.12-.07-.21-.16-.27-.25-.07-.1-.12-.22-.14-.35-.02-.13-.02-.26,.01-.41,.03-.14,.08-.28,.17-.42,.22-.39,.45-.64,.69-.73,.24-.1,.49-.07,.77,.07,.25,.15,.39,.36,.43,.63,.03,.28-.05,.6-.26,.95Z"/><path class="cls-3" d="M34.95,100.05l-.23-.1c-.05-.02-.08-.01-.1,.04l-1.01,2.16-.24,.51c-.02,.05-.01,.08,.04,.1l.23,.12s.08,.01,.1-.04l.31-.69,.92-1.99s.01-.08-.03-.1Zm.45-1.29c-.07-.04-.14-.04-.21-.01-.07,.03-.13,.07-.16,.15-.03,.07-.04,.14-.01,.21,.02,.07,.07,.13,.15,.16,.06,.03,.14,.03,.21,.01,.07-.03,.13-.07,.16-.15,.03-.06,.03-.14,.01-.21-.03-.07-.07-.13-.15-.16Z"/><path class="cls-3" d="M37.79,101.19c-.1-.07-.2-.13-.29-.17-.09-.05-.2-.09-.33-.14-.22-.08-.43-.13-.64-.12-.21,.01-.4,.06-.58,.15-.18,.09-.34,.21-.47,.38-.14,.16-.25,.35-.34,.57-.03,.09-.06,.19-.08,.28-.02,.13-.04,.24-.04,.36,0,.21,.03,.41,.09,.59,.07,.18,.18,.35,.33,.49,.15,.14,.33,.25,.55,.34,.15,.05,.26,.09,.37,.13,.1,.03,.21,.05,.32,.08,.06,0,.09-.02,.12-.07l.06-.21s-.02-.06-.07-.06c-.12-.01-.22-.03-.3-.05-.09-.02-.2-.05-.33-.09-.17-.06-.3-.16-.41-.27-.1-.12-.18-.24-.23-.4-.05-.15-.07-.3-.06-.46,0-.12,.02-.24,.06-.36,0-.04,.02-.09,.03-.14,.07-.18,.16-.34,.26-.46,.09-.14,.22-.23,.35-.3,.14-.07,.28-.12,.44-.13,.17,0,.34,.02,.51,.09,.12,.04,.2,.08,.28,.13,.08,.04,.17,.09,.25,.16,.04,.03,.07,.03,.09-.01l.08-.17c.02-.05,.01-.09-.03-.13Z"/><path class="cls-3" d="M40.3,102.14s-.02-.06-.03-.08c-.13-.22-.38-.38-.74-.47-.18-.05-.34-.07-.49-.08-.16-.01-.3,0-.45,.04-.06,.01-.09,.04-.1,.09l-.06,.21s0,.03,.02,.04c.01,.01,.03,.01,.05,.01,.16-.05,.31-.07,.47-.07,.16,.01,.31,.03,.48,.07,.2,.05,.35,.13,.42,.24,.03,.02,.05,.05,.06,.08,.08,.15,.08,.34,.02,.58l-.04,.16h-.07c-.55-.16-.97-.21-1.27-.19-.24,.03-.43,.1-.58,.24-.15,.14-.25,.32-.31,.55-.02,.09-.03,.2-.03,.3,.01,.1,.03,.21,.07,.29,.12,.26,.36,.45,.73,.55,.22,.05,.43,.05,.64,0,.21-.06,.38-.18,.51-.35l-.12,.43c-.01,.05,0,.08,.05,.1l.21,.05c.05,.01,.08-.01,.09-.06,.01-.08,.03-.17,.04-.25,.02-.09,.05-.19,.07-.3l.37-1.39c.08-.31,.07-.58-.02-.79Zm-.52,1.33c-.05,.19-.12,.35-.2,.47-.08,.14-.17,.24-.28,.31-.1,.07-.22,.13-.35,.15-.12,.02-.24,.02-.38-.01-.18-.05-.33-.14-.41-.25-.05-.06-.08-.14-.09-.22-.01-.09,0-.18,.03-.27,.03-.16,.1-.27,.21-.37,.1-.08,.25-.14,.42-.16,.12-.01,.26-.01,.43,.01,.17,.02,.36,.05,.56,.12l.1,.03-.04,.19Z"/><path class="cls-3" d="M42.12,100.73l-.25-.05c-.05,0-.08,.02-.09,.07l-.24,1.39-.51,2.95c0,.06,.02,.08,.07,.09l.24,.04c.06,.01,.08-.01,.09-.06l.52-3.02,.23-1.33c.01-.05-.01-.08-.06-.08Z"/><path class="cls-3" d="M48.9,102.14v-.62c-.01-.08-.02-.13-.03-.15-.02-.01-.06-.02-.15-.02h-.43c-.05,.01-.08,.03-.09,.07l-.27,.71-1.17,3.03-1.28-3.03-.29-.68s-.02-.04-.03-.05c-.02-.01-.04-.01-.07-.01h-.43c-.07,.01-.13,.01-.14,.03-.01,.01-.02,.05-.02,.14v.58l.04,3.45c0,.05,.02,.08,.08,.08h.25c.05-.01,.08-.03,.08-.08l-.04-3.45v-.37l.16,.37,1.47,3.43s.02,.03,.03,.04c.01,.01,.03,.01,.06,.01h.25s.07-.02,.09-.06c0-.02,.03-.07,.06-.17,.04-.12,.1-.26,.17-.44,.07-.18,.16-.38,.24-.61,.09-.23,.19-.46,.28-.7,.18-.45,.38-.95,.59-1.5,.05-.14,.1-.27,.16-.41v.41l.04,3.41c0,.05,.02,.08,.07,.08h.26c.05,0,.08-.03,.08-.08l-.03-3.41Z"/><path class="cls-3" d="M52.35,102.36c-.12-.09-.23-.18-.36-.22-.05-.03-.12-.05-.18-.07-.2-.05-.42-.05-.65-.01-.12,.02-.23,.04-.33,.08-.31,.12-.55,.31-.7,.6-.18,.32-.23,.72-.15,1.18,.03,.22,.09,.42,.2,.6,.09,.19,.2,.34,.34,.46,.16,.14,.34,.23,.53,.28,.2,.06,.42,.06,.66,.03,.23-.04,.43-.13,.6-.24,.17-.12,.3-.27,.41-.45,.08-.16,.14-.35,.17-.55,.03-.2,.03-.42,0-.64-.08-.45-.26-.8-.55-1.06Zm.01,2.09c-.08,.14-.18,.25-.29,.34-.12,.08-.25,.14-.41,.17-.31,.05-.59-.02-.83-.23-.1-.1-.2-.23-.27-.38-.07-.15-.13-.31-.16-.49-.03-.18-.03-.35-.01-.51,.02-.16,.06-.31,.13-.45,.07-.13,.18-.24,.29-.32,.12-.08,.25-.14,.41-.17,.31-.05,.59,.02,.83,.23,.1,.1,.19,.24,.26,.39,.08,.15,.14,.3,.16,.48,.03,.18,.04,.36,.02,.51-.02,.17-.06,.31-.13,.44Z"/><path class="cls-3" d="M58.27,103.3l-.39-1.15-.27-.81c-.04-.14-.1-.25-.19-.36-.08-.1-.19-.19-.29-.25-.12-.06-.24-.1-.37-.12-.14-.01-.27,.01-.41,.05-.22,.07-.4,.2-.53,.36-.14,.17-.2,.37-.21,.6-.1-.19-.26-.31-.46-.37-.2-.05-.41-.04-.62,.03s-.38,.17-.49,.29c-.12,.13-.19,.27-.23,.43l-.09-.29c-.02-.05-.05-.07-.1-.05l-.2,.07c-.05,.01-.07,.05-.05,.09,.03,.08,.06,.17,.1,.25,.01,.02,.01,.04,.02,.06,.03,.08,.06,.18,.1,.29l.73,2.18c.01,.05,.05,.07,.1,.05l.21-.06c.05-.02,.06-.05,.05-.1l-.6-1.76c-.07-.22-.08-.42-.02-.6,0-.04,.01-.07,.02-.1,.09-.21,.26-.36,.5-.43,.43-.15,.72,.03,.89,.53l.63,1.88c.02,.05,.05,.07,.1,.05l.21-.07c.05-.02,.07-.05,.05-.1l-.51-1.55c-.03-.06-.05-.14-.05-.2-.03-.07-.03-.16-.04-.23-.01-.15,0-.27,.04-.4,.03-.13,.09-.23,.18-.31,.07-.09,.18-.16,.3-.2,.42-.15,.71,.03,.88,.53l.21,.61,.43,1.28s.05,.06,.09,.04l.21-.07c.05-.01,.07-.04,.05-.09Z"/><path class="cls-3" d="M61.34,101.39s-.04-.04-.08,0c-.07,.12-.16,.21-.26,.3-.1,.08-.23,.16-.37,.23-.14,.07-.28,.12-.42,.13-.14,.01-.27-.01-.4-.05-.13-.05-.25-.13-.36-.24-.1-.1-.21-.24-.29-.42l1.73-.89c.05-.02,.08-.04,.12-.05,.02-.02,.03-.03,.04-.05,0-.01,0-.03-.01-.05-.01-.03-.03-.06-.05-.1-.21-.41-.46-.69-.76-.84-.18-.08-.35-.13-.52-.13-.17,0-.36,.05-.55,.16-.35,.18-.57,.45-.65,.84-.07,.38,0,.79,.22,1.22,.16,.31,.34,.56,.53,.71,.12,.1,.23,.18,.36,.22,.34,.14,.72,.09,1.14-.12,.06-.03,.12-.06,.17-.1,.07-.04,.15-.08,.21-.14,.12-.08,.21-.18,.3-.28,.03-.03,.03-.07,.02-.1l-.13-.23Zm-2.44-.72c-.02-.14-.02-.27-.01-.4,.05-.28,.2-.49,.44-.61,.24-.13,.47-.13,.7,.01,.1,.06,.2,.14,.28,.23,.08,.1,.16,.22,.23,.36l-1.53,.79c-.05-.12-.09-.24-.12-.38Z"/><path class="cls-3" d="M64.7,99.62l-1.07-1.58c-.21-.31-.45-.51-.72-.58-.27-.07-.56-.01-.86,.19-.22,.16-.37,.3-.45,.45-.08,.15-.13,.31-.13,.51l-.17-.26s-.07-.05-.12-.02l-.18,.12s-.02,.03-.03,.05c-.01,.02,0,.04,.01,.06,.06,.06,.12,.14,.17,.21s.13,.18,.22,.31l1.29,1.91s.06,.05,.1,.02l.19-.13c.05-.03,.05-.06,.02-.12l-1.01-1.49c-.17-.26-.24-.5-.2-.73,.04-.24,.19-.44,.44-.62,.19-.13,.38-.17,.57-.12,.19,.05,.39,.23,.58,.51l1.02,1.51s.07,.05,.12,.02l.19-.14s.05-.06,.02-.1Z"/><path class="cls-3" d="M66.87,97.81l-.1-.12s-.03-.02-.05-.01c-.01,0-.03,.01-.04,.03-.07,.12-.15,.21-.23,.28-.21,.18-.43,.14-.65-.13l-1.3-1.56,.49-.41s.04-.07,.01-.12l-.1-.14s-.07-.04-.12-.01l-.49,.41-.5-.6s-.07-.04-.1-.01l-.19,.15s-.04,.07,0,.12l.49,.6-.41,.35s-.05,.07-.01,.12l.1,.14s.07,.04,.12,.01l.42-.35,1.17,1.4c.22,.27,.4,.44,.53,.5,.21,.09,.43,.04,.67-.16,.13-.1,.23-.23,.31-.38,.02-.05,.02-.09-.02-.13Z"/><path class="cls-3" d="M68.39,95.94c-.03-.13-.1-.24-.21-.35-.12-.12-.24-.2-.39-.23-.16-.04-.29-.04-.42-.01-.16,.04-.29,.08-.42,.13l-.38,.13c-.16,.05-.27,.07-.37,.06-.08,0-.16-.03-.21-.09-.25-.25-.22-.53,.1-.84,.09-.09,.18-.17,.26-.23,.07-.05,.16-.1,.25-.15,.02-.01,.03-.02,.04-.04,.01-.02,0-.04-.02-.06l-.1-.14s-.03-.03-.05-.03c-.03,0-.05,.01-.07,.02-.09,.05-.19,.1-.27,.17-.09,.07-.19,.15-.29,.25-.09,.09-.18,.2-.24,.31-.06,.1-.1,.22-.12,.34-.02,.12-.01,.23,.03,.35,.03,.12,.1,.23,.2,.32,.08,.08,.2,.15,.31,.19,.13,.03,.27,.03,.42-.01,.13-.03,.26-.07,.39-.12,.14-.05,.26-.08,.4-.13,.12-.03,.23-.04,.36-.02,.12,.01,.21,.05,.28,.13,.12,.13,.17,.27,.14,.43-.02,.17-.1,.32-.25,.47-.18,.18-.39,.3-.62,.41-.05,.02-.06,.05-.03,.1l.14,.17s.07,.04,.13,.02c.06-.04,.12-.07,.18-.1,.04-.04,.09-.07,.15-.1,.04-.04,.09-.08,.15-.13s.1-.09,.17-.16c.09-.09,.19-.21,.25-.32,.07-.12,.12-.24,.15-.37,.02-.13,.01-.24-.02-.37Z"/></g><path class="cls-4" d="M46.5,38.75c-9.85,0-18.8,3.96-25.32,10.38,.72,.18,1.46,.35,2.17,.5,6.1-5.6,14.23-9.02,23.15-9.02s17.08,3.43,23.18,9.04c.69-.19,1.37-.39,2.07-.59-6.52-6.38-15.43-10.32-25.24-10.32Z"/><g id="Sl2k8m.tif"><path class="cls-2" d="M91.7,17.86c-1.39,1.9-2.99,3.37-4.85,4.51-2.13,1.3-4.43,1.81-6.82,1.51-1.6-.21-3.24-.53-4.86-.99-2.57-.71-4.95-1.86-7.06-3.41-2.55-1.88-3.44-3.18-4.13-6.05-.05-.21-.21-.38-.43-.44-.2-.06-.43,0-.59,.16-.2,.2-.45,.37-.7,.55-.55,.37-1.15,.8-1.15,1.54,.01,.61,.44,1.21,1.44,1.97-1.06,.58-1.71,1.25-1.97,2.01-.43,1.23,.22,2.4,.8,3.43,.23,.43,.47,.85,.6,1.22-1.4-.42-2.72-.62-3.99-.81-2.36-.36-4.39-.66-6.29-2.37-.23-.2-.57-.2-.8-.01s-.28,.52-.13,.79c2.17,3.5,6.22,5.46,12.36,5.98-.06,.69-.27,1.04-.49,1.42-.28,.48-.59,1.01-.67,2.07-4.37,.52-10.71,.8-16.98-2-.28-.13-.63-.01-.78,.27-.15,.28-.05,.63,.21,.8,5.87,3.66,10.47,4.74,17.99,4.16l1.08,5.84c.05,.28,.47,.49,.74,.48,.34,0,.6-.27,.6-.6,0-.58,.15-1.16,.29-1.78,.26-1.03,.55-2.17,.16-3.42,.15,.03,.3,.05,.45,.08,1.23,.22,2.5,.45,3.71,.79,1.37,.38,2.41,.81,3.51,1.26,.83,.35,1.68,.69,2.71,1.04,.12,.04,.36,.08,.62,.14,.23,.03,.63,.1,.78,.16,.05,.04,.1,.07,.17,.09,.52,.17,1.13,.51,1.59,.79,.59,.35,1.14,.79,1.61,1.27,.8,.84,1.18,1.68,1.16,2.5-.03,.83-.48,1.65-1.34,2.43-.19,.17-.57,.31-.73,.28-1.64-.24-3.24,1.66-3.71,2.26-1.35,.47-2.7,.9-4.06,1.31-.69,.2-1.37,.4-2.07,.59-.24,.06-.48,.13-.71,.19h-.01c-.24,.06-.46,.13-.69,.18-13.65,3.48-27.29,3.46-43.44-.05-.24-.05-.48-.1-.73-.16-.24-.06-.48-.12-.73-.18-.71-.16-1.45-.32-2.17-.5-.97-.24-1.95-.48-2.94-.74,.13-.3,.24-.64,.37-.96,.13-.38,.31-.89,.42-1.03,.17-.22,.18-.51,.02-.73-.16-.22-.45-.3-.7-.21-2.53,.92-4.2,.88-5.78-.14-.82-.53-1.31-1.16-1.45-1.88-.15-.7,.07-1.5,.62-2.31,.81-1.2,2.01-2.17,3.91-3.17,2.05-1.08,4.34-1.85,7.01-2.33l2.11-.43c1.53-.3,3.07-.57,4.65-.84l.52-.09c-.16,.2-.31,.4-.48,.61-.91,1.12-1.94,2.39-1.35,4.47,.05,.18,.19,.32,.37,.4l.23,.08c.27,.12,.59,.01,.73-.25l.9-1.52c.7-1.21,1.42-2.41,2.14-3.62,4.14-6.84,7.82-12.45,12.34-17.61,3.73-4.25,7.25-7.19,11.06-9.25l1.52-.83c5.58-3.05,9.6-5.26,15.66-3.04,2.51,.91,5.57,3.63,5.95,6.06,.13,.75,.25,1.44,.38,2.11,.16,.83,.31,1.65,.44,2.58,.21,1.4,.92,4.7,3.24,5.03,3.35,.48,6.24-.07,8.62-1.64Z"/></g><path class="cls-1" d="M46.7,99.06c-2.91,.08-5.75-.71-8.2-2.29-.7-.44-1.38-.99-2.24-1.8-.38-.36-.58-.64-.7-.96-.2-.62,.08-1.38,.71-1.83,.21-.14,.5-.23,.8-.24,.38-.01,.75,.11,1.02,.32,.23,.18,.44,.38,.65,.58,.17,.16,.35,.32,.52,.47,1.61,1.33,3.46,2.14,5.52,2.41,.64,.08,1.27,.12,1.88,.1,2.21-.06,4.28-.78,6.16-2.14,.29-.21,.54-.43,.79-.64,.2-.18,.41-.35,.63-.51,.29-.22,.62-.27,.84-.28,.55-.02,1.09,.24,1.37,.65,.5,.73,.41,1.56-.23,2.2l-.38,.36c-2.49,2.21-5.75,3.5-9.13,3.6Z"/></g></svg>