<?xml version="1.0" encoding="UTF-8"?><svg id="Layer_1" xmlns="http://www.w3.org/2000/svg" viewBox="0 0 124.93 128.23"><defs><style>.cls-1{stroke:#e2e419;stroke-linecap:round;stroke-linejoin:round;stroke-width:1.2px;}.cls-1,.cls-2,.cls-3,.cls-4{fill:#041e2d;}.cls-5{fill:#f7e033;}.cls-6{fill:#fff;font-family:AllRoundGothic-Medium, 'All Round Gothic';font-size:4px;}.cls-3{stroke:#e7e514;stroke-miterlimit:10;stroke-width:2.69px;}.cls-4{font-family:AllRoundGothic-Bold, 'All Round Gothic';font-size:20.53px;}</style></defs><text class="cls-4" transform="translate(.07 127.51)"><tspan x="0" y="0">MAGIK SNAP</tspan></text><g><path class="cls-2" d="M95.91,101.89H25.5c-4.7,0-8.5-4.32-8.5-9.66V56.34c0-5.33,3.81-9.66,8.5-9.66,0,0,12.55,5.91,35.25,5.91s35.16-5.91,35.16-5.91c4.7,0,8.5,4.32,8.5,9.66v35.89c0,5.33-3.81,9.66-8.5,9.66Z"/><circle class="cls-3" cx="61.07" cy="74.29" r="33.9"/><g><text class="cls-6" transform="translate(35.96 57) rotate(121.6)"><tspan x="0" y="0">C</tspan></text><text class="cls-6" transform="translate(34.31 59.72) rotate(115.86)"><tspan x="0" y="0">A</tspan></text><text class="cls-6" transform="translate(33.1 62.25) rotate(110.81)"><tspan x="0" y="0">P</tspan></text><text class="cls-6" transform="translate(32.2 64.62) rotate(106.11)"><tspan x="0" y="0">T</tspan></text><text class="cls-6" transform="translate(31.53 66.94) rotate(101.24)"><tspan x="0" y="0">U</tspan></text><text class="cls-6" transform="translate(31.01 69.62) rotate(96.19)"><tspan x="0" y="0">R</tspan></text><text class="cls-6" transform="translate(30.75 72.21) rotate(92.76)"><tspan x="0" y="0">I</tspan></text><text class="cls-6" transform="translate(30.68 73.29) rotate(89.17)"><tspan x="0" y="0">N</tspan></text><text class="cls-6" transform="translate(30.72 76.05) rotate(83.61)"><tspan x="0" y="0">G</tspan></text><text class="cls-6" transform="translate(31.1 79.17) rotate(79.55)"><tspan x="0" y="0"> </tspan></text><text class="cls-6" transform="translate(31.3 80.33) rotate(75.91)"><tspan x="0" y="0">Y</tspan></text><text class="cls-6" transform="translate(31.87 82.69) rotate(70.91)"><tspan x="0" y="0">O</tspan></text><text class="cls-6" transform="translate(32.94 85.72) rotate(65.25)"><tspan x="0" y="0">U</tspan></text><text class="cls-6" transform="translate(34.09 88.21) rotate(60.15)"><tspan x="0" y="0">R</tspan></text><text class="cls-6" transform="translate(35.42 90.46) rotate(56.55)"><tspan x="0" y="0"> </tspan></text><text class="cls-6" transform="translate(36.04 91.49) rotate(51.77)"><tspan x="0" y="0">M</tspan></text><text class="cls-6" transform="translate(38.49 94.54) rotate(45.36)"><tspan x="0" y="0">A</tspan></text><text class="cls-6" transform="translate(40.46 96.54) rotate(39.83)"><tspan x="0" y="0">G</tspan></text><text class="cls-6" transform="translate(42.9 98.52) rotate(35.89)"><tspan x="0" y="0">I</tspan></text><text class="cls-6" transform="translate(43.75 99.17) rotate(31.96)"><tspan x="0" y="0">C</tspan></text><text class="cls-6" transform="translate(46.44 100.83) rotate(26.27)"><tspan x="0" y="0">A</tspan></text><text class="cls-6" transform="translate(48.97 102.07) rotate(21.34)"><tspan x="0" y="0">L</tspan></text><text class="cls-6" transform="translate(51.17 102.9) rotate(17.99)"><tspan x="0" y="0"> </tspan></text><text class="cls-6" transform="translate(52.3 103.32) rotate(13.19)"><tspan x="0" y="0">M</tspan></text><text class="cls-6" transform="translate(56.09 104.18) rotate(6.49)"><tspan x="0" y="0">O</tspan></text><text class="cls-6" transform="translate(59.3 104.56) rotate(-.19)"><tspan x="0" y="0">M</tspan></text><text class="cls-6" transform="translate(63.19 104.5) rotate(-6.21)"><tspan x="0" y="0">E</tspan></text><text class="cls-6" transform="translate(65.69 104.23) rotate(-11.17)"><tspan x="0" y="0">N</tspan></text><text class="cls-6" transform="translate(68.3 103.7) rotate(-15.85)"><tspan x="0" y="0">T</tspan></text><text class="cls-6" transform="translate(70.57 103.06) rotate(-20.22)"><tspan x="0" y="0">S</tspan></text></g><g id="Sl2k8m.tif"><path class="cls-1" d="M39.46,33.55c2.1-.41,4.21-.76,6.42-1.15-.85,1.99-3.18,3.01-2.42,5.67l.23,.09c1-1.7,1.99-3.4,3.01-5.09,3.68-6.08,7.51-12.08,12.28-17.51,3.18-3.62,6.7-6.91,11.11-9.29,6.38-3.45,10.7-6.36,17.49-3.87,2.75,1.01,5.87,3.89,6.28,6.47,.27,1.67,.58,2.98,.81,4.65,.23,1.63,.96,4.22,2.69,4.47,4.47,.64,8.11-.61,10.8-4.02,.05-.06,.13-.09,.24-.09-1.65,3.22-3.81,6.06-7.09,8.07-2.17,1.33-4.57,1.89-7.14,1.57-1.65-.21-3.3-.55-4.9-.99-2.63-.72-5.03-1.89-7.18-3.47-2.65-1.94-3.59-3.34-4.31-6.33-1.1,1.11-3.28,1.3,.34,3.69-5.59,2.36-.57,5.18-1.1,7.35-4.33-1.59-7.98-.63-11.23-3.55,2.5,4.04,7.37,5.35,12.35,5.68,0,2.49-1.2,2.04-1.2,4.53-3.63,.46-10.69,1.14-17.63-1.96,6.16,3.85,10.68,4.61,17.98,3.99l1.17,6.31h.14c0-1.95,1.43-3.76,0-5.96,1.72,.34,3.56,.61,5.33,1.09,2.42,.67,3.83,1.49,6.2,2.28,.27,.09,1.39,.2,1.54,.38,.57,.19,1.2,.54,1.69,.83,.63,.37,1.22,.84,1.72,1.36,1.82,1.9,1.75,3.93-.2,5.73-.29,.26-.83,.49-1.22,.43-1.5-.23-3.21,2.15-3.21,2.15-19.96,6.97-38.09,5.89-58.23,.51,.48-.62,.84-2.27,1.21-2.73-2.5,.91-4.42,.99-6.25-.19-1.95-1.27-2.26-3.11-.99-4.98,1-1.47,2.48-2.48,4.08-3.32,2.22-1.17,4.61-1.91,7.1-2.36l2.1-.43Z"/></g><path class="cls-5" d="M61.27,98.23c-2.88,.08-5.69-.71-8.11-2.27-.69-.44-1.37-.98-2.22-1.78-.38-.36-.58-.64-.69-.95-.19-.62,.08-1.36,.7-1.81,.2-.14,.49-.23,.79-.24,.37-.01,.74,.1,1.01,.32,.23,.18,.44,.37,.65,.57,.17,.16,.34,.32,.52,.47,1.59,1.32,3.42,2.11,5.46,2.39,.63,.08,1.26,.12,1.87,.1,2.18-.06,4.23-.77,6.09-2.12,.28-.21,.53-.42,.78-.63,.2-.17,.41-.35,.62-.51,.29-.22,.61-.27,.83-.28,.55-.02,1.08,.24,1.36,.64,.49,.73,.41,1.54-.23,2.18l-.37,.36c-2.46,2.19-5.69,3.47-9.04,3.56Z"/></g></svg>